<svg xmlns="http://www.w3.org/2000/svg" cursor="move" viewBox="690 140 400 520"><g transform="translate(136 -11)"><path stroke="#505050" stroke-width=".5" d="m575 173 180 180M575 173l180 220M575 213l180 140M575 213l180 180M575 253l180 100M575 253l180 140M575 293l180 60M575 293l180 100M575 333l180 20M575 333l180 60M575 373l180-20M575 373l180 20M575 413l180-60M575 413l180-20M575 453l180-100M575 453l180-60M575 493l180-140M575 493l180-100M575 533l180-180M575 533l180-140M755 353l180 60M755 393l180 20M575 573l180-220M575 573l180-180M575 613l180-260M575 613l180-220M575 653l180-300M575 653l180-260M575 173l180 260M575 173l180 300M575 213l180 220M575 213l180 260M575 253l180 180M575 253l180 220M575 293l180 140M575 293l180 180M575 333l180 100M575 333l180 140M575 373l180 60M575 373l180 100M575 413l180 20M575 413l180 60M575 453l180-20M575 453l180 20M575 493l180-60M575 493l180-20M575 533l180-100M575 533l180-60M575 573l180-140M575 573l180-100M575 613l180-180M575 613l180-140M575 653l180-220M575 653l180-180M755 433l180-20M755 473l180-60" class="link"/><circle cx="575" cy="172.5" r="10" fill="#fff" stroke="#333" class="node"/><circle cx="575" cy="212.5" r="10" fill="#fff" stroke="#333" class="node"/><circle cx="575" cy="252.5" r="10" fill="#fff" stroke="#333" class="node"/><circle cx="575" cy="292.5" r="10" fill="#fff" stroke="#333" class="node"/><circle cx="575" cy="332.5" r="10" fill="#fff" stroke="#333" class="node"/><circle cx="575" cy="372.5" r="10" fill="#fff" stroke="#333" class="node"/><circle cx="575" cy="412.5" r="10" fill="#fff" stroke="#333" class="node"/><circle cx="575" cy="452.5" r="10" fill="#fff" stroke="#333" class="node"/><circle cx="575" cy="492.5" r="10" fill="#fff" stroke="#333" class="node"/><circle cx="575" cy="532.5" r="10" fill="#fff" stroke="#333" class="node"/><circle cx="575" cy="572.5" r="10" fill="#fff" stroke="#333" class="node"/><circle cx="575" cy="612.5" r="10" fill="#fff" stroke="#333" class="node"/><circle cx="575" cy="652.5" r="10" fill="#fff" stroke="#333" class="node"/><circle cx="755" cy="352.5" r="10" fill="#fff" stroke="#333" class="node"/><circle cx="755" cy="392.5" r="10" fill="#fff" stroke="#333" class="node"/><circle cx="755" cy="432.5" r="10" fill="#fff" stroke="#333" class="node"/><circle cx="755" cy="472.5" r="10" fill="#fff" stroke="#333" class="node"/><circle cx="935" cy="412.5" r="10" fill="#fff" stroke="#333" class="node"/></g></svg>