<svg xmlns="http://www.w3.org/2000/svg" cursor="move" viewBox="550 270 800 450"><g transform="matrix(1.5 0 0 1.5 -240 -168)"><path fill="#a0a0a0" stroke="#000" d="M554 389h28v28h-28z" class="rect" opacity=".8"/><path fill="#e0e0e0" stroke="#000" d="M562 397h28v28h-28z" class="rect" opacity=".8"/><path fill="#a0a0a0" stroke="#000" d="M570 405h28v28h-28z" class="rect" opacity=".8"/><path fill="#e0e0e0" stroke="#000" d="M578 413h28v28h-28z" class="rect" opacity=".8"/><path fill="#a0a0a0" stroke="#000" d="M586 421h28v28h-28z" class="rect" opacity=".8"/><path fill="#e0e0e0" stroke="#000" d="M594 429h28v28h-28z" class="rect" opacity=".8"/><path fill="#a0a0a0" stroke="#000" d="M662 359h7v7h-7z" class="rect" opacity=".8"/><path fill="#e0e0e0" stroke="#000" d="M670 367h7v7h-7z" class="rect" opacity=".8"/><path fill="#a0a0a0" stroke="#000" d="M678 375h7v7h-7z" class="rect" opacity=".8"/><path fill="#e0e0e0" stroke="#000" d="M686 383h7v7h-7z" class="rect" opacity=".8"/><path fill="#a0a0a0" stroke="#000" d="M694 391h7v7h-7z" class="rect" opacity=".8"/><path fill="#e0e0e0" stroke="#000" d="M702 399h7v7h-7z" class="rect" opacity=".8"/><path fill="#a0a0a0" stroke="#000" d="M710 407h7v7h-7z" class="rect" opacity=".8"/><path fill="#e0e0e0" stroke="#000" d="M718 415h7v7h-7z" class="rect" opacity=".8"/><path fill="#a0a0a0" stroke="#000" d="M726 423h7v7h-7z" class="rect" opacity=".8"/><path fill="#e0e0e0" stroke="#000" d="M734 431h7v7h-7z" class="rect" opacity=".8"/><path fill="#a0a0a0" stroke="#000" d="M742 439h7v7h-7z" class="rect" opacity=".8"/><path fill="#e0e0e0" stroke="#000" d="M750 447h7v7h-7z" class="rect" opacity=".8"/><path fill="#a0a0a0" stroke="#000" d="M758 455h7v7h-7z" class="rect" opacity=".8"/><path fill="#e0e0e0" stroke="#000" d="M766 463h7v7h-7z" class="rect" opacity=".8"/><path fill="#a0a0a0" stroke="#000" d="M774 471h7v7h-7z" class="rect" opacity=".8"/><path fill="#e0e0e0" stroke="#000" d="M782 479h7v7h-7z" class="rect" opacity=".8"/><path fill="none" stroke="#000" stroke-opacity=".8" d="M599 436h4v4h-4z" class="conv"/><path stroke="#000" stroke-opacity=".8" stroke-width=".5" d="m603 440 181 41M603 436l181 45" class="link"/><path fill="#e0e0e0" stroke="#000" d="M799 332h10l181 181h-10zM992 419h10l7 7h-10z" class="poly" opacity=".8"/><path stroke="#000" stroke-opacity=".8" stroke-width=".5" d="m789 486 191 27M669 359l130-27M990 513l9-87M809 332l183 87" class="line"/><text x="659" y="570" class="text" dy="0em" font-family="sans-serif" font-size="16">Conv &amp; Pool</text><text x="824" y="570" class="text" dy="0em" font-family="sans-serif" font-size="16">Conv &amp; Pool</text><text x="554" y="374" class="info" dy="0em" font-family="sans-serif" font-size="16">6@28x28</text><text x="662" y="344" class="info" dy="0em" font-family="sans-serif" font-size="16">16@7x7</text><text x="799" y="317" class="info" dy="0em" font-family="sans-serif" font-size="16">1x256</text><text x="992" y="404" class="info" dy="0em" font-family="sans-serif" font-size="16">1x13</text></g></svg>