<svg xmlns="http://www.w3.org/2000/svg" data-name="Layer 1" viewBox="0 0 140 140">
  <defs>
    <radialGradient id="a" cx="74.2" cy="70.8" r="65" gradientTransform="matrix(1 0 0 1 32 11)" gradientUnits="userSpaceOnUse">
      <stop offset=".2" stop-color="#010101" stop-opacity="0"/>
      <stop offset="1" stop-color="#010101"/>
    </radialGradient>
    <radialGradient id="b" cx="50.7" cy="161.7" r="35" gradientTransform="rotate(11 1037 820)" gradientUnits="userSpaceOnUse">
      <stop offset="0" stop-color="#010101" stop-opacity="0"/>
      <stop offset="1" stop-color="#010101"/>
    </radialGradient>
    <radialGradient id="c" cx="51.2" cy="29.5" r="60.3" gradientTransform="rotate(11 1031 473)" gradientUnits="userSpaceOnUse">
      <stop offset=".2" stop-color="#010101" stop-opacity="0"/>
      <stop offset="1" stop-color="#010101"/>
    </radialGradient>
    <radialGradient id="d" cx="13.8" cy="-.8" r="40.7" gradientTransform="matrix(0 1 -1 1 28 -10)" gradientUnits="userSpaceOnUse">
      <stop offset=".4" stop-color="#010101" stop-opacity="0"/>
      <stop offset="1" stop-color="#010101"/>
    </radialGradient>
    <radialGradient id="e" cx="-401.7" cy="-1203.8" r="1068.9" gradientTransform="rotate(11 1037 128)" gradientUnits="userSpaceOnUse">
      <stop offset="0" stop-color="#010101" stop-opacity="0"/>
      <stop offset=".4" stop-color="#010101"/>
    </radialGradient>
    <linearGradient id="f" x1="0" y1="0" x2="1" y2="1" gradientUnits="objectBoundingBox">
      <stop offset="0" stop-color="#491d8b"/>
      <stop offset="1" stop-color="#6929c4"/>
    </linearGradient>
  </defs>
  <rect fill="url(#f)" x="0" y="0" width="140" height="140" rx="10"/>
  <path fill="url(#a)" d="M131 103c-1-13-31-20-60-21-30 0-61 8-61 21s30 20 59 20c30 0 62-7 62-20Zm-62 16c-32-1-55-9-55-16 0-8 25-16 57-16s55 9 55 16-25 16-57 16Z"/>
  <path fill="#010101" d="M70 140a70 70 0 1 1 62-103 70 70 0 0 1-62 103ZM70 5a65 65 0 1 0 58 34A65 65 0 0 0 70 5Z"/>
  <path fill="url(#b)" d="M88 131c0-6-8-10-18-10s-18 4-18 10c0 5 8 9 18 9s18-4 18-9Zm-18 5c-8 0-13-3-13-5s5-5 13-5 13 3 13 5-5 5-13 5Z"/>
  <path fill="url(#c)" d="M140 70c0-14-35-22-68-22-35 0-72 8-72 22s35 22 69 22c35 0 71-8 71-22ZM69 87C31 87 5 78 5 70s29-17 67-17c37 0 63 9 63 17s-28 17-66 17Z"/>
  <path fill="url(#d)" d="M72 17c-31 0-62 7-62 20s30 20 59 21c30 0 62-8 62-21s-31-20-59-20Zm-3 36c-32 0-55-9-55-16s25-16 57-16c32 1 55 9 55 16 0 8-25 16-57 16Z"/>
  <path d="M70 0c-5 0-17 1-17 8s12 8 17 8 17-1 17-8-12-8-17-8Zm0 5c7 0 12 1 12 3s-5 3-12 3-12-2-12-3 5-3 12-3Z"/>
  <path fill="url(#e)" d="M99 112a6 6 0 0 0 0 1L72 67 48 26a6 6 0 1 0-4 2 7 7 0 0 0 1 0l24 41 10 19 16 27a6 6 0 1 0 4-3Z"/>
</svg>